<svg xmlns="http://www.w3.org/2000/svg" xmlns:xlink="http://www.w3.org/1999/xlink"><symbol id="logo" viewBox="0 0 82 31"><path d="M9.333 4.736H1.99c0 17.523-.088 21.398-1.99 22.733v3.1h3.096c.221-4.607.045-9.128 0-23.035h3.14V30.57h3.097V4.736zm6.209 11.539h5.307v-6.89c0-3.745-1.282-5.08-3.715-5.08-2.654 0-4.689 1.593-4.689 5.856v15.801c0 3.703 1.371 5.038 4.07 5.038 2.963 0 4.379-3.1 4.29-7.19l-.132-5.167h-.62l-.132 5.037c-.089 2.756-.664 4.392-1.99 4.392-1.24 0-2.39-.474-2.39-3.574v-8.223zm1.282-9.042c.885 0 1.371.43 1.371 3.574v4.865h-2.653V9.73c0-1.55.22-2.497 1.282-2.497zm16.333-2.497h-9.2v25.833h3.096V7.534h3.008V30.57h3.096V4.736zM40.485 0H36.68v1.98h3.804V0zm1.061 0v1.98h3.804V0h-3.804zm-.62 4.306c-2.653 0-4.688 1.593-4.688 5.855v15.801c0 3.703 1.371 5.038 4.07 5.038 2.963 0 4.379-3.1 4.29-7.19l-.133-5.167h-.619l-.132 5.037c-.089 2.756-.664 4.392-1.99 4.392-1.24 0-2.39-.473-2.39-3.573v-8.224h5.308V9.386c0-3.746-1.282-5.08-3.715-5.08zm-1.592 11.366V9.731c0-1.55.222-2.498 1.283-2.498.885 0 1.371.43 1.371 3.574v4.865h-2.654zm13.886.818l4.157-11.754H53.66l-1.017 9.86h-.486l-1.062-4.564-1.46-5.296h-3.494l4.246 12.314-4.423 13.52h3.715l1.372-11.626h.398l1.061 5.64 1.46 5.985h3.494L53.22 16.49zM68.751 4.736h-3.14l-3.716 20.537h-.62l.62-9.946.31-10.591H59.02v25.833h3.14l3.672-20.538h.663l-.619 9.946-.265 10.592h3.14V4.736zm9.423 0v12.313h-3.23V4.736h-3.096v25.833h3.097V17.911h3.229v12.658h3.096V4.736h-3.096z"/></symbol><symbol id="icon-activity" viewBox="0 0 20 20"><path d="M18.333 10H15l-2.5 7.5-5-15L5 10H1.667" stroke-width="1.5" stroke-linecap="round" stroke-linejoin="round"/></symbol><symbol id="icon-folder" viewBox="0 0 20 20"><path d="M18.333 15.833a1.666 1.666 0 01-1.666 1.667H3.333a1.667 1.667 0 01-1.666-1.667V4.167A1.667 1.667 0 013.333 2.5H7.5L9.167 5h7.5a1.666 1.666 0 011.666 1.667v9.166z" stroke-width="1.5" stroke-linecap="round" stroke-linejoin="round"/></symbol><symbol id="icon-home" viewBox="0 0 20 20"><path d="M2.5 7.5L10 1.667 17.5 7.5v9.167a1.667 1.667 0 01-1.667 1.666H4.167A1.667 1.667 0 012.5 16.667V7.5z" stroke-width="1.5" stroke-linecap="round" stroke-linejoin="round"/><path d="M7.5 18.333V10h5v8.333" stroke-width="1.5" stroke-linecap="round" stroke-linejoin="round"/></symbol><symbol id="icon-inbox" viewBox="0 0 20 20"><path d="M18.333 10h-5l-1.666 2.5H8.333L6.667 10h-5" stroke-width="1.5" stroke-linecap="round" stroke-linejoin="round"/><path d="M4.542 4.258L1.667 10v5a1.667 1.667 0 001.666 1.667h13.334A1.666 1.666 0 0018.333 15v-5l-2.875-5.742a1.667 1.667 0 00-1.491-.925H6.033a1.667 1.667 0 00-1.491.925v0z" stroke-width="1.5" stroke-linecap="round" stroke-linejoin="round"/></symbol><symbol id="icon-list" viewBox="0 0 20 20"><path d="M6.667 5H17.5M6.667 10H17.5M6.667 15H17.5M2.5 5h.008M2.5 10h.008M2.5 15h.008" stroke-width="1.5" stroke-linecap="round" stroke-linejoin="round"/></symbol><symbol id="icon-more--vertical" viewBox="0 0 24 24"><path d="M12 13a1 1 0 100-2 1 1 0 000 2zm0-7a1 1 0 100-2 1 1 0 000 2zm0 14a1 1 0 100-2 1 1 0 000 2z" stroke-width="1.5" stroke-linecap="round" stroke-linejoin="round"/></symbol><symbol id="icon-plus" viewBox="0 0 17 16"><path d="M8.5 3.333v9.334M3.833 8h9.334" stroke="#fff" stroke-width="1.5" stroke-linecap="round" stroke-linejoin="round"/></symbol><symbol id="icon-search" viewBox="0 0 20 20"><path d="M9.167 15.833a6.667 6.667 0 100-13.333 6.667 6.667 0 000 13.333zM17.5 17.5l-3.625-3.625" stroke="#71717A" stroke-width="1.5" stroke-linecap="round" stroke-linejoin="round"/></symbol><symbol id="icon-users" viewBox="0 0 20 20"><path d="M14.167 17.5v-1.667a3.333 3.333 0 00-3.334-3.333H4.167a3.333 3.333 0 00-3.334 3.333V17.5M7.5 9.167a3.333 3.333 0 100-6.667 3.333 3.333 0 000 6.667zM19.167 17.5v-1.667a3.333 3.333 0 00-2.5-3.225m-3.334-10a3.333 3.333 0 010 6.459" stroke-width="1.5" stroke-linecap="round" stroke-linejoin="round"/></symbol></svg>